<svg width="28" height="28" viewBox="0 0 28 28" fill="none" xmlns="http://www.w3.org/2000/svg">
<path d="M3.61316 1.0723C2.34045 1.34547 1.3409 2.35743 1.06773 3.64256C0.943568 4.25098 0.943568 20.3058 1.06773 20.9142C1.40919 22.5097 2.77503 23.5714 4.50716 23.5776H4.95416V24.0246C4.96037 25.7567 6.022 27.1225 7.61754 27.464C7.95279 27.5323 9.17583 27.5509 14.366 27.5509C18.5939 27.5509 20.8227 27.5261 21.071 27.4826C21.2697 27.4454 21.6732 27.3026 21.965 27.166C22.4803 26.9177 22.53 26.8742 24.7029 24.7013C26.671 22.727 26.9317 22.4414 27.1428 22.0441C27.565 21.2246 27.5525 21.4543 27.5525 14.3892C27.5525 9.09349 27.5339 7.95736 27.4594 7.60349C27.1242 6.01415 25.7583 4.95873 24.0324 4.95252H23.5792V4.49931C23.573 2.77339 22.5176 1.40755 20.9282 1.0723C20.326 0.941929 4.19674 0.941929 3.61316 1.0723ZM20.7979 2.45677C21.3628 2.64923 21.9402 3.23902 22.0892 3.76052C22.1202 3.88469 22.1699 4.20752 22.1885 4.46827L22.232 4.95252H15.1296C9.28138 4.95252 7.95279 4.97115 7.61754 5.03944C6.32 5.31881 5.32045 6.31836 5.04108 7.6159C4.97278 7.95115 4.95416 9.27974 4.95416 15.128V22.2304L4.47612 22.1869C4.20916 22.1683 3.88632 22.1186 3.76216 22.0876C3.24066 21.9386 2.65086 21.355 2.4584 20.7962C2.35286 20.492 2.3094 4.77869 2.40874 4.12681C2.55153 3.18935 3.14753 2.56231 4.02912 2.41331C4.22157 2.38227 7.85346 2.36364 12.4663 2.36985C18.7801 2.37606 20.6178 2.39468 20.7979 2.45677ZM24.7712 6.43011C25.3237 6.61636 25.8887 7.18132 26.075 7.73386C26.1308 7.90769 26.1557 9.40391 26.1743 14.0912L26.1929 20.2251H23.9889C21.4249 20.2251 21.3318 20.2437 20.7854 20.7838C20.2453 21.3301 20.2267 21.4233 20.2267 23.9873V26.1913L14.0991 26.1727C9.40554 26.154 7.90933 26.1292 7.7355 26.0733C7.18296 25.8871 6.618 25.3221 6.43175 24.7696C6.3262 24.4654 6.28275 8.75203 6.38208 8.10015C6.52487 7.16269 7.12087 6.53565 8.00246 6.38665C8.19492 6.35561 11.8268 6.33698 16.4396 6.34319C22.7535 6.3494 24.5912 6.36802 24.7712 6.43011ZM23.7034 23.6707L21.6236 25.7505L21.6049 23.9376C21.5925 22.6711 21.6112 22.0689 21.6608 21.9448C21.8036 21.6095 21.8905 21.5971 23.9207 21.5909H25.7832L23.7034 23.6707Z" fill="#6B4EFF"/>
<path d="M9.82144 9.81986C9.6476 9.99369 9.61035 10.0806 9.61035 10.2917C9.61035 10.5028 9.6476 10.5897 9.82144 10.7635L10.0325 10.9746H16.2533H22.474L22.6851 10.7635C22.859 10.5897 22.8962 10.5028 22.8962 10.2917C22.8962 10.0806 22.859 9.99369 22.6851 9.81986L22.474 9.60877H16.2533H10.0325L9.82144 9.81986Z" fill="#6B4EFF"/>
<path d="M9.82144 13.7932C9.6476 13.9671 9.61035 14.054 9.61035 14.2651C9.61035 14.4762 9.6476 14.5631 9.82144 14.7369L10.0325 14.948H16.2533H22.474L22.6851 14.7369C22.859 14.5631 22.8962 14.4762 22.8962 14.2651C22.8962 14.054 22.859 13.9671 22.6851 13.7932L22.474 13.5822H16.2533H10.0325L9.82144 13.7932Z" fill="#6B4EFF"/>
<path d="M9.82144 17.7665C9.6476 17.9403 9.61035 18.0273 9.61035 18.2383C9.61035 18.4494 9.6476 18.5363 9.82144 18.7102L10.0325 18.9213H14.2666H18.5007L18.7118 18.7102C18.8856 18.5363 18.9229 18.4494 18.9229 18.2383C18.9229 18.0273 18.8856 17.9403 18.7118 17.7665L18.5007 17.5554H14.2666H10.0325L9.82144 17.7665Z" fill="#6B4EFF"/>
<path d="M9.82144 21.7399C9.6476 21.9137 9.61035 22.0007 9.61035 22.2117C9.61035 22.4228 9.6476 22.5097 9.82144 22.6836L10.0325 22.8947H13.6147H17.1969L17.3708 22.7146C17.6936 22.398 17.6936 22.0255 17.3708 21.7089L17.1969 21.5288H13.6147H10.0325L9.82144 21.7399Z" fill="#6B4EFF"/>
</svg>
