<svg width="30" height="26" viewBox="0 0 30 26" fill="none" xmlns="http://www.w3.org/2000/svg">
<path d="M20.8325 0.619183C19.1479 0.73361 17.3425 1.49646 16.141 2.6026C15.9948 2.7361 15.6579 2.93952 15.3972 3.05395L14.9204 3.26373L14.4119 3.04123C13.808 2.78059 12.7336 2.50088 11.7292 2.34196C10.5976 2.16396 7.3428 2.18303 6.08409 2.37374C4.39311 2.64074 2.60041 3.1048 2.33341 3.35273C2.26348 3.4163 2.20627 3.53709 2.20627 3.61973C2.20627 3.75323 2.16177 3.7723 1.55784 3.87401C0.782278 4.00116 0.534351 4.10923 0.324567 4.41437L0.171997 4.64322V14.2424C0.171997 23.4284 0.178354 23.8544 0.292782 24.1023C0.508923 24.5791 1.09378 24.9541 1.62141 24.9541C1.72948 24.9541 2.23805 24.8588 2.75933 24.738C4.34225 24.3693 5.56917 24.1786 7.06944 24.0578C8.22643 23.9688 10.2416 24.0133 11.3605 24.1595C12.1488 24.2612 13.7635 24.5918 14.5263 24.8079C14.9014 24.9096 14.9395 24.9096 15.3209 24.8079C15.8867 24.649 17.0374 24.382 17.565 24.293C17.9719 24.2231 18.0354 24.2231 18.2325 24.3311C18.3914 24.4138 18.5885 24.4456 19.0017 24.4456H19.5548L19.6883 24.7443C19.8663 25.1448 20.3303 25.6153 20.7245 25.7805C21.1631 25.9713 21.9005 25.9713 22.3392 25.7805C22.7333 25.6153 23.1974 25.1448 23.3754 24.7507L23.5025 24.4583L24.1319 24.4328C24.7231 24.4138 24.7803 24.4011 25.0092 24.2167C25.4414 23.8734 25.6576 23.2123 25.4796 22.7609C25.4414 22.6656 25.4796 22.5766 25.6385 22.3922C26.0072 21.9536 26.0835 21.178 25.8038 20.6377L25.6639 20.377L25.8038 20.1164C25.9754 19.7795 26.0199 19.3345 25.9182 18.9085C25.8546 18.6352 25.7656 18.5017 25.4923 18.2283L25.1554 17.8914V17.1476C25.1554 16.2195 25.1935 16.1432 25.9945 15.6028C27.8063 14.3696 29.1031 12.4116 29.5418 10.2756C29.7007 9.50004 29.7134 8.12691 29.5735 7.31956C29.2748 5.62221 28.4865 4.13465 27.2341 2.91409C26.5412 2.24024 26.0072 1.85246 25.2444 1.46468C23.9094 0.778111 22.479 0.511112 20.8325 0.619183ZM22.8541 1.78889C25.4351 2.2466 27.6473 4.29994 28.3721 6.90635C28.6009 7.73277 28.6581 9.1504 28.4928 9.98318C28.1114 11.9221 26.9354 13.6449 25.1999 14.8082C24.2781 15.4248 24.0747 15.8253 24.0747 17.0459V17.8342H23.5597H23.0448L23.0702 16.3212C23.0893 14.6493 23.0702 14.7446 23.5724 14.1153C24.0492 13.5304 24.0747 13.4033 24.0747 11.6869V10.2057H24.3289C24.5006 10.2057 24.6277 10.1612 24.7104 10.0785C24.793 9.99589 24.8375 9.86875 24.8375 9.69711C24.8375 9.52547 24.793 9.39832 24.7104 9.31568C24.6277 9.23304 24.5006 9.18854 24.3289 9.18854H24.0747V8.93426C24.0747 8.76262 24.0302 8.63548 23.9475 8.55283C23.8649 8.47019 23.7377 8.42569 23.5661 8.42569C23.3945 8.42569 23.2673 8.47019 23.1847 8.55283C23.102 8.63548 23.0575 8.76262 23.0575 8.93426V9.18854H21.5318H20.0061V8.93426C20.0061 8.76262 19.9616 8.63548 19.879 8.55283C19.7963 8.47019 19.6692 8.42569 19.4976 8.42569C19.3259 8.42569 19.1988 8.47019 19.1161 8.55283C19.0335 8.63548 18.989 8.76262 18.989 8.93426V9.18854H18.7347C18.5631 9.18854 18.4359 9.23304 18.3533 9.31568C18.2706 9.39832 18.2261 9.52547 18.2261 9.69711C18.2261 9.86875 18.2706 9.99589 18.3533 10.0785C18.4359 10.1612 18.5631 10.2057 18.7347 10.2057H18.989V11.6869C18.989 13.4033 19.0144 13.5304 19.4912 14.1153C19.9934 14.7446 19.9743 14.6493 19.9934 16.3212L20.0188 17.8342H19.5039H18.989V17.0523C18.989 16.6263 18.9572 16.1686 18.9254 16.0415C18.7983 15.5901 18.4804 15.2151 17.8447 14.7828C16.0774 13.5813 14.9268 11.8903 14.5645 9.97046C14.4119 9.13133 14.4691 7.70734 14.6916 6.90635C15.34 4.59237 17.0882 2.74881 19.3386 2.01774C20.502 1.63632 21.589 1.56639 22.8541 1.78889ZM10.4451 3.27645C11.8945 3.39087 13.1659 3.67059 14.075 4.07744C14.3992 4.2173 14.4119 4.23637 14.4119 4.47158C14.4119 4.62415 14.3292 4.87844 14.1894 5.15815C13.6617 6.19435 13.3947 7.4022 13.3947 8.74355C13.3947 10.0404 13.6363 11.1211 14.164 12.2082L14.4119 12.7104V17.7388V22.7736L13.7952 22.4685C12.6383 21.8964 11.1126 21.4895 9.52328 21.3242C7.9785 21.1653 5.49288 21.3369 3.90361 21.7057C3.59847 21.7819 3.31876 21.8392 3.28697 21.8392C3.24883 21.8392 3.2234 18.6034 3.2234 12.9837V4.12194L3.94175 3.92487C5.94424 3.36545 8.42986 3.11752 10.4451 3.27645ZM2.20627 13.861C2.20627 22.7736 2.20627 22.8563 2.33341 22.9834C2.51141 23.1614 2.70848 23.1424 3.68111 22.8881C5.12417 22.513 5.94424 22.4049 7.57801 22.3668C9.18635 22.3286 10.0318 22.4049 11.2015 22.691C11.8055 22.8372 12.9815 23.2314 12.937 23.2695C12.9243 23.2822 12.5493 23.2377 12.0979 23.1678C9.05921 22.7228 5.94424 22.8881 2.60041 23.6573C1.62141 23.8861 1.42434 23.8861 1.32263 23.6954C1.29085 23.6319 1.25906 19.735 1.24635 14.306L1.22727 5.02465L1.64049 4.95472C1.86298 4.91658 2.08548 4.87844 2.12998 4.87208C2.18719 4.86572 2.20627 6.70292 2.20627 13.861ZM23.0448 11.5915C23.0257 13.1236 23.0448 13.0346 22.5426 13.6385C22.0658 14.217 22.0722 14.1789 22.0531 16.0987L22.034 17.8342H21.5318H21.0296L21.0105 16.0987C20.9915 14.1789 20.9978 14.217 20.521 13.6385C20.0188 13.0346 20.0379 13.1236 20.0188 11.5915L19.9934 10.2057H21.5318H23.0702L23.0448 11.5915ZM16.6686 15.2977C16.8784 15.4566 17.1518 15.6473 17.2726 15.7173C17.832 16.0606 17.9655 16.3784 17.9719 17.3701C17.9719 17.8914 17.9591 17.955 17.8447 17.9931C17.7811 18.0122 17.6095 18.1584 17.4696 18.3173C17.0501 18.7941 16.9674 19.5442 17.2599 20.1164L17.3997 20.377L17.2535 20.6504C17.1391 20.8665 17.1136 21.0191 17.1136 21.4704V22.0172L16.8911 22.0871C16.7704 22.1252 16.3889 22.2905 16.052 22.4621L15.429 22.7736V18.4826V14.1979L15.8613 14.5984C16.0965 14.8273 16.4589 15.1388 16.6686 15.2977ZM24.615 18.9403C24.8502 19.042 24.9456 19.2455 24.8757 19.5252C24.793 19.8557 24.6595 19.8685 21.5318 19.8685C18.4041 19.8685 18.2706 19.8557 18.188 19.5252C18.1244 19.2518 18.2134 19.042 18.4359 18.9467C18.7411 18.8132 24.2972 18.8068 24.615 18.9403ZM24.615 20.9746C24.8502 21.0763 24.9456 21.2797 24.8757 21.5594C24.793 21.89 24.6595 21.9027 21.5318 21.9027C18.4041 21.9027 18.2706 21.89 18.188 21.5594C18.1244 21.2861 18.2134 21.0763 18.4359 20.9809C18.7411 20.8474 24.2972 20.8411 24.615 20.9746ZM24.2908 22.9834C24.3925 23.0216 24.4561 23.0915 24.4561 23.1741C24.4561 23.2568 24.3925 23.3267 24.2908 23.3649C24.0747 23.4475 18.989 23.4475 18.7728 23.3649C18.5631 23.2886 18.5503 23.0661 18.7538 22.9834C18.9445 22.9071 24.0874 22.9008 24.2908 22.9834ZM17.5269 23.1106C17.5269 23.1869 17.4569 23.2186 17.1136 23.2631L16.8594 23.2949L17.1136 23.1741C17.4061 23.0406 17.5269 23.0216 17.5269 23.1106ZM22.1485 24.6045C22.0531 24.6871 21.8751 24.7825 21.7543 24.8206C21.4746 24.8969 21.1504 24.8143 20.9152 24.6045L20.7372 24.4519H21.5318H22.3265L22.1485 24.6045Z" fill="#6B4EFF"/>
</svg>
