<svg width="23" height="28" viewBox="0 0 23 28" fill="none" xmlns="http://www.w3.org/2000/svg">
<path d="M10.0624 1.04155C8.1894 1.40174 6.76068 2.56633 6.19639 4.21117C5.95627 4.92553 5.87222 5.68192 5.95026 6.40829C6.19639 8.57539 7.52907 10.5564 9.29397 11.4028C11.0349 12.2373 12.9438 11.8351 14.4266 10.3223C15.7593 8.96559 16.4796 7.0266 16.2815 5.30973C16.2095 4.63739 16.0894 4.22317 15.8253 3.69491C15.5612 3.16063 15.4471 2.99255 14.9969 2.52431C14.3786 1.86998 13.5261 1.37773 12.5956 1.1316C11.9773 0.969518 10.6867 0.921493 10.0624 1.04155ZM12.3555 2.06207C13.4961 2.36823 14.4866 3.16063 14.9669 4.16314C15.267 4.78146 15.261 4.79947 14.6667 4.79947C13.9223 4.79347 13.4301 4.60737 12.8658 4.10311C12.5656 3.83898 12.4636 3.77895 12.2835 3.77895C12.1034 3.77895 12.0254 3.82697 11.7912 4.0851C11.1969 4.74544 10.3385 5.2557 9.51608 5.43579C8.98781 5.55585 8.14738 5.52584 7.49305 5.37576C6.89875 5.23769 6.90475 5.24369 7.0128 4.84149C7.16888 4.25319 7.46303 3.73092 7.91927 3.24468C8.52557 2.60235 9.21593 2.21815 10.1164 2.00805C10.6026 1.89999 11.8513 1.93001 12.3555 2.06207ZM12.6017 5.16565C13.244 5.60988 13.9583 5.78997 14.8528 5.74795L15.3931 5.72394L15.3571 6.05411C15.243 7.05662 15.0149 7.79499 14.5827 8.52737C13.5441 10.2863 11.8933 11.1627 10.3745 10.7725C8.7717 10.3523 7.33097 8.62942 6.97679 6.70244C6.93476 6.48032 6.91075 6.28823 6.92876 6.27622C6.94077 6.25821 7.11486 6.28823 7.31296 6.33625C7.91326 6.48633 9.09586 6.51634 9.67816 6.39628C10.5546 6.21619 11.365 5.80798 12.0554 5.19567C12.1874 5.08161 12.3015 4.98556 12.3135 4.97956C12.3255 4.97956 12.4516 5.0636 12.6017 5.16565Z" fill="#6B4EFF"/>
<path d="M8.66351 12.4594C8.54945 12.4714 8.11723 12.5134 7.70302 12.5494C5.12771 12.7716 3.11068 13.7561 2.42033 15.1248C2.19222 15.581 2.04214 16.1093 1.34578 18.8407C1.00961 20.1373 0.661436 21.458 0.559384 21.7641C0.259231 22.7066 0.325265 23.5471 0.757485 24.2314C0.883549 24.4295 2.04814 25.5761 2.84055 26.2784L3.05065 26.4645L1.74199 26.4705C0.43332 26.4705 0.43332 26.4705 0.289246 26.6206C0.0911454 26.8127 0.0851424 27.1189 0.27724 27.299L0.415311 27.431H11.1968H21.9843L22.1044 27.275C22.2724 27.0588 22.2664 26.8007 22.0803 26.6206C21.9363 26.4705 21.9363 26.4705 20.6276 26.4645H19.3189L20.2854 25.5221C21.39 24.4475 21.5821 24.2014 21.7502 23.6611C21.9363 23.0548 21.9123 22.5325 21.6541 21.7161C21.5401 21.3439 21.1859 20.0533 20.8737 18.8467C20.2134 16.2894 19.9973 15.581 19.7692 15.1248C19.0788 13.7621 17.1638 12.8136 14.5465 12.5374C13.9462 12.4774 9.10173 12.4114 8.66351 12.4594ZM11.9352 13.3839H12.1873L11.8331 14.2663L11.4729 15.1488L11.659 16.3494C11.7611 17.0157 11.8451 17.574 11.8451 17.598C11.8451 17.628 11.551 17.646 11.1848 17.646C10.8186 17.646 10.5245 17.622 10.5245 17.592C10.5245 17.562 10.6085 17.0097 10.7045 16.3734C10.8066 15.7371 10.8726 15.1488 10.8546 15.0707C10.8366 14.9927 10.6745 14.5845 10.5004 14.1583L10.1823 13.3899L10.4884 13.3659C10.6565 13.3479 10.9927 13.3479 11.2388 13.3599C11.4849 13.3719 11.7971 13.3839 11.9352 13.3839ZM9.51594 14.3204L9.90014 15.2628L9.71405 16.4394L9.53395 17.616L6.44838 17.646L3.36281 17.6761L3.25476 17.8261C3.1407 17.9762 3.1467 18.0543 3.46486 21.8782C3.64496 24.0213 3.78903 25.7802 3.78303 25.7922C3.77702 25.7982 3.27877 25.348 2.68447 24.7897C1.79601 23.9673 1.5739 23.7271 1.47185 23.481C1.27975 23.0368 1.29776 22.6106 1.54989 21.8182C1.66995 21.458 1.9641 20.3534 2.21623 19.3569C2.76851 17.1478 3.04465 16.1573 3.21274 15.7251C3.57292 14.8246 4.93561 13.9962 6.62247 13.654C7.04269 13.57 8.39337 13.4199 8.96967 13.3899C9.11974 13.3839 9.14976 13.4379 9.51594 14.3204ZM15.3449 13.624C16.9357 13.8941 18.2504 14.5725 18.8027 15.4069C19.0428 15.7611 19.2049 16.3074 19.9132 19.0267C20.2254 20.2334 20.5796 21.524 20.6936 21.8962C21.1078 23.2169 21.0118 23.469 19.541 24.8857L18.5626 25.8282L18.5986 25.474C18.7847 23.7211 19.2109 18.0302 19.1689 17.9162C19.1388 17.8381 19.0608 17.7421 18.9948 17.7121C18.9167 17.6701 17.8722 17.646 15.8552 17.646H12.8356L12.6495 16.4574L12.4694 15.2748L12.7576 14.5725C12.9137 14.1823 13.0878 13.7681 13.1358 13.648L13.2258 13.4259L13.9522 13.4679C14.3544 13.4919 14.9787 13.558 15.3449 13.624ZM18.1844 18.9487C18.1603 19.1408 18.0283 20.7676 17.8782 22.5686C17.7341 24.3695 17.5961 25.9843 17.5781 26.1524L17.542 26.4705H11.1848H4.83356L4.79754 26.1524C4.77953 25.9843 4.64146 24.3695 4.49139 22.5686C4.34731 20.7676 4.20924 19.1408 4.18523 18.9487L4.14921 18.6065H11.1848H18.2204L18.1844 18.9487Z" fill="#6B4EFF"/>
<path d="M10.9026 21.9382C10.6625 22.0402 10.5845 22.1903 10.5845 22.5265C10.5845 22.7546 10.6145 22.8206 10.7706 22.9527C10.8966 23.0607 11.0227 23.1088 11.1848 23.1088C11.3469 23.1088 11.4729 23.0607 11.599 22.9527C11.7551 22.8206 11.7851 22.7546 11.7851 22.5265C11.7851 22.1843 11.701 22.0402 11.4549 21.9322C11.2028 21.8301 11.1488 21.8301 10.9026 21.9382Z" fill="#6B4EFF"/>
<path d="M10.2244 23.7511C9.91228 23.8711 9.81023 24.3154 10.0443 24.5495C10.1524 24.6575 10.2424 24.6696 11.1849 24.6696C12.1274 24.6696 12.2175 24.6575 12.3255 24.5495C12.4936 24.3814 12.4876 24.0092 12.3195 23.8531C12.2054 23.7511 12.0854 23.7391 11.251 23.7271C10.7347 23.7211 10.2725 23.7331 10.2244 23.7511Z" fill="#6B4EFF"/>
</svg>
